<?xml version="1.0" encoding="UTF-8" standalone="no"?>
<!DOCTYPE svg PUBLIC "-//W3C//DTD SVG 1.1//EN"
 "http://www.w3.org/Graphics/SVG/1.1/DTD/svg11.dtd">
<!-- Generated by graphviz version 2.43.0 (0)
 -->
<!-- Title: structs Pages: 1 -->
<svg width="725pt" height="872pt"
 viewBox="0.00 0.00 725.03 872.00" xmlns="http://www.w3.org/2000/svg" xmlns:xlink="http://www.w3.org/1999/xlink">
<g id="graph0" class="graph" transform="scale(1 1) rotate(0) translate(4 868)">
<title>structs</title>
<polygon fill="white" stroke="transparent" points="-4,4 -4,-868 721.03,-868 721.03,4 -4,4"/>
<!-- struct_res_decoupe -->
<g id="node1" class="node">
<title>struct_res_decoupe</title>
<polygon fill="chartreuse" stroke="transparent" points="321.5,-818 321.5,-860 416.5,-860 416.5,-818 321.5,-818"/>
<polygon fill="none" stroke="black" points="322,-839 322,-860 417,-860 417,-839 322,-839"/>
<text text-anchor="start" x="325" y="-845.8" font-family="Times,serif" font-size="14.00">res_decoupe</text>
<polygon fill="none" stroke="black" points="322,-818 322,-839 417,-839 417,-818 322,-818"/>
<text text-anchor="start" x="360.5" y="-824.8" font-family="Times,serif" font-size="14.00">⏺</text>
</g>
<!-- struct_140653292098496 -->
<g id="node2" class="node">
<title>struct_140653292098496</title>
<polygon fill="gray" stroke="transparent" points="346,-732 346,-774 394,-774 394,-732 346,-732"/>
<polygon fill="none" stroke="black" points="346,-753 346,-774 394,-774 394,-753 346,-753"/>
<text text-anchor="start" x="351.5" y="-760.8" font-family="Times,serif" text-decoration="underline" font-size="14.00">tuple</text>
<polygon fill="none" stroke="black" points="346,-732 346,-753 370,-753 370,-732 346,-732"/>
<text text-anchor="start" x="349" y="-738.8" font-family="Times,serif" font-size="14.00">⏺</text>
<polygon fill="none" stroke="black" points="370,-732 370,-753 394,-753 394,-732 370,-732"/>
<text text-anchor="start" x="373" y="-738.8" font-family="Times,serif" font-size="14.00">⏺</text>
</g>
<!-- struct_res_decoupe&#45;&gt;struct_140653292098496 -->
<g id="edge25" class="edge">
<title>struct_res_decoupe:port_res_decoupe&#45;&gt;struct_140653292098496</title>
<path fill="none" stroke="black" d="M370,-817C370,-807.7 370,-797.63 370,-788.33"/>
<polygon fill="black" stroke="black" points="373.5,-788.23 370,-778.23 366.5,-788.23 373.5,-788.23"/>
</g>
<!-- struct_140653291018272 -->
<g id="node3" class="node">
<title>struct_140653291018272</title>
<polygon fill="gray" stroke="transparent" points="130.5,-625 130.5,-688 353.5,-688 353.5,-625 130.5,-625"/>
<polygon fill="none" stroke="black" points="131,-666.5 131,-687.5 354,-687.5 354,-666.5 131,-666.5"/>
<text text-anchor="start" x="134" y="-674.3" font-family="Times,serif" text-decoration="underline" font-size="14.00">ListeSimplementChaineeTriee</text>
<polygon fill="none" stroke="black" points="131,-645.5 131,-666.5 354,-666.5 354,-645.5 131,-645.5"/>
<text text-anchor="start" x="228" y="-652.3" font-family="Times,serif" font-size="14.00">tete</text>
<polygon fill="none" stroke="black" points="131,-624.5 131,-645.5 354,-645.5 354,-624.5 131,-624.5"/>
<text text-anchor="start" x="233.5" y="-631.3" font-family="Times,serif" font-size="14.00">⏺</text>
</g>
<!-- struct_140653292098496&#45;&gt;struct_140653291018272 -->
<g id="edge12" class="edge">
<title>struct_140653292098496:port_child0&#45;&gt;struct_140653291018272</title>
<path fill="none" stroke="black" d="M345,-742C315.54,-742 289.9,-721.09 271.57,-700.07"/>
<polygon fill="black" stroke="black" points="274.24,-697.8 265.16,-692.36 268.86,-702.28 274.24,-697.8"/>
</g>
<!-- struct_140653291017984 -->
<g id="node14" class="node">
<title>struct_140653291017984</title>
<polygon fill="gray" stroke="transparent" points="387.5,-625 387.5,-688 610.5,-688 610.5,-625 387.5,-625"/>
<polygon fill="none" stroke="black" points="388,-666.5 388,-687.5 611,-687.5 611,-666.5 388,-666.5"/>
<text text-anchor="start" x="391" y="-674.3" font-family="Times,serif" text-decoration="underline" font-size="14.00">ListeSimplementChaineeTriee</text>
<polygon fill="none" stroke="black" points="388,-645.5 388,-666.5 611,-666.5 611,-645.5 388,-645.5"/>
<text text-anchor="start" x="485" y="-652.3" font-family="Times,serif" font-size="14.00">tete</text>
<polygon fill="none" stroke="black" points="388,-624.5 388,-645.5 611,-645.5 611,-624.5 388,-624.5"/>
<text text-anchor="start" x="490.5" y="-631.3" font-family="Times,serif" font-size="14.00">⏺</text>
</g>
<!-- struct_140653292098496&#45;&gt;struct_140653291017984 -->
<g id="edge24" class="edge">
<title>struct_140653292098496:port_child1&#45;&gt;struct_140653291017984</title>
<path fill="none" stroke="black" d="M395,-742C424.63,-742 450.52,-721.09 469.05,-700.07"/>
<polygon fill="black" stroke="black" points="471.78,-702.26 475.54,-692.36 466.43,-697.75 471.78,-702.26"/>
</g>
<!-- struct_140653291018224 -->
<g id="node4" class="node">
<title>struct_140653291018224</title>
<polygon fill="gray" stroke="transparent" points="195.5,-518 195.5,-581 306.5,-581 306.5,-518 195.5,-518"/>
<polygon fill="none" stroke="black" points="196,-559.5 196,-580.5 307,-580.5 307,-559.5 196,-559.5"/>
<text text-anchor="start" x="226.5" y="-567.3" font-family="Times,serif" text-decoration="underline" font-size="14.00">Cellule</text>
<polygon fill="none" stroke="black" points="196,-538.5 196,-559.5 248,-559.5 248,-538.5 196,-538.5"/>
<text text-anchor="start" x="199" y="-545.3" font-family="Times,serif" font-size="14.00">valeur</text>
<polygon fill="none" stroke="black" points="248,-538.5 248,-559.5 307,-559.5 307,-538.5 248,-538.5"/>
<text text-anchor="start" x="251" y="-545.3" font-family="Times,serif" font-size="14.00">suivant</text>
<polygon fill="none" stroke="black" points="196,-517.5 196,-538.5 248,-538.5 248,-517.5 196,-517.5"/>
<text text-anchor="start" x="213" y="-524.3" font-family="Times,serif" font-size="14.00">⏺</text>
<polygon fill="none" stroke="black" points="248,-517.5 248,-538.5 307,-538.5 307,-517.5 248,-517.5"/>
<text text-anchor="start" x="268.5" y="-524.3" font-family="Times,serif" font-size="14.00">⏺</text>
</g>
<!-- struct_140653291018272&#45;&gt;struct_140653291018224 -->
<g id="edge11" class="edge">
<title>struct_140653291018272:port_child0&#45;&gt;struct_140653291018224</title>
<path fill="none" stroke="black" d="M243,-623.5C243,-614.42 243.62,-604.75 244.51,-595.51"/>
<polygon fill="black" stroke="black" points="248.02,-595.64 245.62,-585.32 241.06,-594.88 248.02,-595.64"/>
</g>
<!-- struct_140653291914416 -->
<g id="node5" class="node">
<title>struct_140653291914416</title>
<polygon fill="gray" stroke="transparent" points="323,-421.5 323,-463.5 361,-463.5 361,-421.5 323,-421.5"/>
<polygon fill="none" stroke="black" points="323,-442.5 323,-463.5 361,-463.5 361,-442.5 323,-442.5"/>
<text text-anchor="start" x="326" y="-450.3" font-family="Times,serif" text-decoration="underline" font-size="14.00">float</text>
<polygon fill="none" stroke="black" points="323,-421.5 323,-442.5 361,-442.5 361,-421.5 323,-421.5"/>
<text text-anchor="start" x="332.5" y="-428.3" font-family="Times,serif" font-size="14.00">inf</text>
</g>
<!-- struct_140653291018224&#45;&gt;struct_140653291914416 -->
<g id="edge1" class="edge">
<title>struct_140653291018224:port_child0&#45;&gt;struct_140653291914416</title>
<path fill="none" stroke="black" d="M222,-516.5C222,-506.59 270.34,-479.86 305.66,-461.64"/>
<polygon fill="black" stroke="black" points="307.46,-464.65 314.77,-456.98 304.27,-458.42 307.46,-464.65"/>
</g>
<!-- struct_140653291018512 -->
<g id="node6" class="node">
<title>struct_140653291018512</title>
<polygon fill="gray" stroke="transparent" points="53.5,-411 53.5,-474 164.5,-474 164.5,-411 53.5,-411"/>
<polygon fill="none" stroke="black" points="54,-452.5 54,-473.5 165,-473.5 165,-452.5 54,-452.5"/>
<text text-anchor="start" x="84.5" y="-460.3" font-family="Times,serif" text-decoration="underline" font-size="14.00">Cellule</text>
<polygon fill="none" stroke="black" points="54,-431.5 54,-452.5 106,-452.5 106,-431.5 54,-431.5"/>
<text text-anchor="start" x="57" y="-438.3" font-family="Times,serif" font-size="14.00">valeur</text>
<polygon fill="none" stroke="black" points="106,-431.5 106,-452.5 165,-452.5 165,-431.5 106,-431.5"/>
<text text-anchor="start" x="109" y="-438.3" font-family="Times,serif" font-size="14.00">suivant</text>
<polygon fill="none" stroke="black" points="54,-410.5 54,-431.5 106,-431.5 106,-410.5 54,-410.5"/>
<text text-anchor="start" x="71" y="-417.3" font-family="Times,serif" font-size="14.00">⏺</text>
<polygon fill="none" stroke="black" points="106,-410.5 106,-431.5 165,-431.5 165,-410.5 106,-410.5"/>
<text text-anchor="start" x="126.5" y="-417.3" font-family="Times,serif" font-size="14.00">⏺</text>
</g>
<!-- struct_140653291018224&#45;&gt;struct_140653291018512 -->
<g id="edge10" class="edge">
<title>struct_140653291018224:port_child1&#45;&gt;struct_140653291018512</title>
<path fill="none" stroke="black" d="M278,-516.5C278,-494.27 228.1,-474.65 182.53,-461.36"/>
<polygon fill="black" stroke="black" points="183.47,-457.98 172.89,-458.62 181.55,-464.72 183.47,-457.98"/>
</g>
<!-- struct_9788576 -->
<g id="node7" class="node">
<title>struct_9788576</title>
<polygon fill="gray" stroke="transparent" points="14,-314.5 14,-356.5 40,-356.5 40,-314.5 14,-314.5"/>
<polygon fill="none" stroke="black" points="14,-335.5 14,-356.5 40,-356.5 40,-335.5 14,-335.5"/>
<text text-anchor="start" x="17" y="-343.3" font-family="Times,serif" text-decoration="underline" font-size="14.00">int</text>
<polygon fill="none" stroke="black" points="14,-314.5 14,-335.5 40,-335.5 40,-314.5 14,-314.5"/>
<text text-anchor="start" x="22" y="-321.3" font-family="Times,serif" font-size="14.00">0</text>
</g>
<!-- struct_140653291018512&#45;&gt;struct_9788576 -->
<g id="edge2" class="edge">
<title>struct_140653291018512:port_child0&#45;&gt;struct_9788576</title>
<path fill="none" stroke="black" d="M53,-420.5C31.06,-420.5 25.56,-394.02 24.96,-370.8"/>
<polygon fill="black" stroke="black" points="28.46,-370.8 24.97,-360.8 21.46,-370.79 28.46,-370.8"/>
</g>
<!-- struct_140653291017264 -->
<g id="node8" class="node">
<title>struct_140653291017264</title>
<polygon fill="gray" stroke="transparent" points="80.5,-304 80.5,-367 191.5,-367 191.5,-304 80.5,-304"/>
<polygon fill="none" stroke="black" points="81,-345.5 81,-366.5 192,-366.5 192,-345.5 81,-345.5"/>
<text text-anchor="start" x="111.5" y="-353.3" font-family="Times,serif" text-decoration="underline" font-size="14.00">Cellule</text>
<polygon fill="none" stroke="black" points="81,-324.5 81,-345.5 133,-345.5 133,-324.5 81,-324.5"/>
<text text-anchor="start" x="84" y="-331.3" font-family="Times,serif" font-size="14.00">valeur</text>
<polygon fill="none" stroke="black" points="133,-324.5 133,-345.5 192,-345.5 192,-324.5 133,-324.5"/>
<text text-anchor="start" x="136" y="-331.3" font-family="Times,serif" font-size="14.00">suivant</text>
<polygon fill="none" stroke="black" points="81,-303.5 81,-324.5 133,-324.5 133,-303.5 81,-303.5"/>
<text text-anchor="start" x="98" y="-310.3" font-family="Times,serif" font-size="14.00">⏺</text>
<polygon fill="none" stroke="black" points="133,-303.5 133,-324.5 192,-324.5 192,-303.5 133,-303.5"/>
<text text-anchor="start" x="153.5" y="-310.3" font-family="Times,serif" font-size="14.00">⏺</text>
</g>
<!-- struct_140653291018512&#45;&gt;struct_140653291017264 -->
<g id="edge9" class="edge">
<title>struct_140653291018512:port_child1&#45;&gt;struct_140653291017264</title>
<path fill="none" stroke="black" d="M136,-409.5C136,-400.38 136,-390.63 136,-381.31"/>
<polygon fill="black" stroke="black" points="139.5,-381.03 136,-371.03 132.5,-381.03 139.5,-381.03"/>
</g>
<!-- struct_9788640 -->
<g id="node9" class="node">
<title>struct_9788640</title>
<polygon fill="gray" stroke="transparent" points="41,-207.5 41,-249.5 67,-249.5 67,-207.5 41,-207.5"/>
<polygon fill="none" stroke="black" points="41,-228.5 41,-249.5 67,-249.5 67,-228.5 41,-228.5"/>
<text text-anchor="start" x="44" y="-236.3" font-family="Times,serif" text-decoration="underline" font-size="14.00">int</text>
<polygon fill="none" stroke="black" points="41,-207.5 41,-228.5 67,-228.5 67,-207.5 41,-207.5"/>
<text text-anchor="start" x="49" y="-214.3" font-family="Times,serif" font-size="14.00">2</text>
</g>
<!-- struct_140653291017264&#45;&gt;struct_9788640 -->
<g id="edge3" class="edge">
<title>struct_140653291017264:port_child0&#45;&gt;struct_9788640</title>
<path fill="none" stroke="black" d="M80,-313.5C69.03,-313.5 62.18,-287.02 58.29,-263.8"/>
<polygon fill="black" stroke="black" points="61.73,-263.15 56.75,-253.8 54.81,-264.21 61.73,-263.15"/>
</g>
<!-- struct_140653291017456 -->
<g id="node10" class="node">
<title>struct_140653291017456</title>
<polygon fill="gray" stroke="transparent" points="107.5,-197 107.5,-260 218.5,-260 218.5,-197 107.5,-197"/>
<polygon fill="none" stroke="black" points="108,-238.5 108,-259.5 219,-259.5 219,-238.5 108,-238.5"/>
<text text-anchor="start" x="138.5" y="-246.3" font-family="Times,serif" text-decoration="underline" font-size="14.00">Cellule</text>
<polygon fill="none" stroke="black" points="108,-217.5 108,-238.5 160,-238.5 160,-217.5 108,-217.5"/>
<text text-anchor="start" x="111" y="-224.3" font-family="Times,serif" font-size="14.00">valeur</text>
<polygon fill="none" stroke="black" points="160,-217.5 160,-238.5 219,-238.5 219,-217.5 160,-217.5"/>
<text text-anchor="start" x="163" y="-224.3" font-family="Times,serif" font-size="14.00">suivant</text>
<polygon fill="none" stroke="black" points="108,-196.5 108,-217.5 160,-217.5 160,-196.5 108,-196.5"/>
<text text-anchor="start" x="125" y="-203.3" font-family="Times,serif" font-size="14.00">⏺</text>
<polygon fill="none" stroke="black" points="160,-196.5 160,-217.5 219,-217.5 219,-196.5 160,-196.5"/>
<text text-anchor="start" x="180.5" y="-203.3" font-family="Times,serif" font-size="14.00">⏺</text>
</g>
<!-- struct_140653291017264&#45;&gt;struct_140653291017456 -->
<g id="edge8" class="edge">
<title>struct_140653291017264:port_child1&#45;&gt;struct_140653291017456</title>
<path fill="none" stroke="black" d="M163,-302.5C163,-293.38 163,-283.63 163,-274.31"/>
<polygon fill="black" stroke="black" points="166.5,-274.03 163,-264.03 159.5,-274.03 166.5,-274.03"/>
</g>
<!-- struct_9788704 -->
<g id="node11" class="node">
<title>struct_9788704</title>
<polygon fill="gray" stroke="transparent" points="106,-100.5 106,-142.5 132,-142.5 132,-100.5 106,-100.5"/>
<polygon fill="none" stroke="black" points="106,-121.5 106,-142.5 132,-142.5 132,-121.5 106,-121.5"/>
<text text-anchor="start" x="109" y="-129.3" font-family="Times,serif" text-decoration="underline" font-size="14.00">int</text>
<polygon fill="none" stroke="black" points="106,-100.5 106,-121.5 132,-121.5 132,-100.5 106,-100.5"/>
<text text-anchor="start" x="114" y="-107.3" font-family="Times,serif" font-size="14.00">4</text>
</g>
<!-- struct_140653291017456&#45;&gt;struct_9788704 -->
<g id="edge4" class="edge">
<title>struct_140653291017456:port_child0&#45;&gt;struct_9788704</title>
<path fill="none" stroke="black" d="M134,-195.5C134,-182.56 131.71,-168.59 128.92,-156.37"/>
<polygon fill="black" stroke="black" points="132.3,-155.45 126.5,-146.58 125.5,-157.13 132.3,-155.45"/>
</g>
<!-- struct_140653291017648 -->
<g id="node12" class="node">
<title>struct_140653291017648</title>
<polygon fill="gray" stroke="transparent" points="172.5,-90 172.5,-153 283.5,-153 283.5,-90 172.5,-90"/>
<polygon fill="none" stroke="black" points="173,-131.5 173,-152.5 284,-152.5 284,-131.5 173,-131.5"/>
<text text-anchor="start" x="203.5" y="-139.3" font-family="Times,serif" text-decoration="underline" font-size="14.00">Cellule</text>
<polygon fill="none" stroke="black" points="173,-110.5 173,-131.5 225,-131.5 225,-110.5 173,-110.5"/>
<text text-anchor="start" x="176" y="-117.3" font-family="Times,serif" font-size="14.00">valeur</text>
<polygon fill="none" stroke="black" points="225,-110.5 225,-131.5 284,-131.5 284,-110.5 225,-110.5"/>
<text text-anchor="start" x="228" y="-117.3" font-family="Times,serif" font-size="14.00">suivant</text>
<polygon fill="none" stroke="black" points="173,-89.5 173,-110.5 225,-110.5 225,-89.5 173,-89.5"/>
<text text-anchor="start" x="190" y="-96.3" font-family="Times,serif" font-size="14.00">⏺</text>
<polygon fill="none" stroke="black" points="225,-89.5 225,-110.5 284,-110.5 284,-89.5 225,-89.5"/>
<text text-anchor="start" x="245.5" y="-96.3" font-family="Times,serif" font-size="14.00">⏺</text>
</g>
<!-- struct_140653291017456&#45;&gt;struct_140653291017648 -->
<g id="edge7" class="edge">
<title>struct_140653291017456:port_child1&#45;&gt;struct_140653291017648</title>
<path fill="none" stroke="black" d="M190,-195.5C190,-185.43 192.88,-175.37 197.06,-166.07"/>
<polygon fill="black" stroke="black" points="200.22,-167.57 201.61,-157.07 193.98,-164.41 200.22,-167.57"/>
</g>
<!-- struct_140653291017648&#45;&gt;struct_140653291018224 -->
<g id="edge6" class="edge">
<title>struct_140653291017648:port_child1&#45;&gt;struct_140653291018224</title>
<path fill="none" stroke="black" d="M285,-99.5C365.53,-99.5 294.42,-390.33 263.58,-503.86"/>
<polygon fill="black" stroke="black" points="260.17,-503.07 260.91,-513.64 266.92,-504.92 260.17,-503.07"/>
</g>
<!-- struct_9788768 -->
<g id="node13" class="node">
<title>struct_9788768</title>
<polygon fill="gray" stroke="transparent" points="186,-4 186,-46 212,-46 212,-4 186,-4"/>
<polygon fill="none" stroke="black" points="186,-25 186,-46 212,-46 212,-25 186,-25"/>
<text text-anchor="start" x="189" y="-32.8" font-family="Times,serif" text-decoration="underline" font-size="14.00">int</text>
<polygon fill="none" stroke="black" points="186,-4 186,-25 212,-25 212,-4 186,-4"/>
<text text-anchor="start" x="194" y="-10.8" font-family="Times,serif" font-size="14.00">6</text>
</g>
<!-- struct_140653291017648&#45;&gt;struct_9788768 -->
<g id="edge5" class="edge">
<title>struct_140653291017648:port_child0&#45;&gt;struct_9788768</title>
<path fill="none" stroke="black" d="M199,-88.5C199,-79.28 199,-69.29 199,-60.06"/>
<polygon fill="black" stroke="black" points="202.5,-60.04 199,-50.04 195.5,-60.04 202.5,-60.04"/>
</g>
<!-- struct_140653291018128 -->
<g id="node15" class="node">
<title>struct_140653291018128</title>
<polygon fill="gray" stroke="transparent" points="388.5,-518 388.5,-581 499.5,-581 499.5,-518 388.5,-518"/>
<polygon fill="none" stroke="black" points="389,-559.5 389,-580.5 500,-580.5 500,-559.5 389,-559.5"/>
<text text-anchor="start" x="419.5" y="-567.3" font-family="Times,serif" text-decoration="underline" font-size="14.00">Cellule</text>
<polygon fill="none" stroke="black" points="389,-538.5 389,-559.5 441,-559.5 441,-538.5 389,-538.5"/>
<text text-anchor="start" x="392" y="-545.3" font-family="Times,serif" font-size="14.00">valeur</text>
<polygon fill="none" stroke="black" points="441,-538.5 441,-559.5 500,-559.5 500,-538.5 441,-538.5"/>
<text text-anchor="start" x="444" y="-545.3" font-family="Times,serif" font-size="14.00">suivant</text>
<polygon fill="none" stroke="black" points="389,-517.5 389,-538.5 441,-538.5 441,-517.5 389,-517.5"/>
<text text-anchor="start" x="406" y="-524.3" font-family="Times,serif" font-size="14.00">⏺</text>
<polygon fill="none" stroke="black" points="441,-517.5 441,-538.5 500,-538.5 500,-517.5 441,-517.5"/>
<text text-anchor="start" x="461.5" y="-524.3" font-family="Times,serif" font-size="14.00">⏺</text>
</g>
<!-- struct_140653291017984&#45;&gt;struct_140653291018128 -->
<g id="edge23" class="edge">
<title>struct_140653291017984:port_child0&#45;&gt;struct_140653291018128</title>
<path fill="none" stroke="black" d="M500,-623.5C500,-612.73 496.11,-602.56 490.39,-593.44"/>
<polygon fill="black" stroke="black" points="493.05,-591.14 484.4,-585.02 487.34,-595.19 493.05,-591.14"/>
</g>
<!-- struct_140653291018128&#45;&gt;struct_140653291914416 -->
<g id="edge13" class="edge">
<title>struct_140653291018128:port_child0&#45;&gt;struct_140653291914416</title>
<path fill="none" stroke="black" d="M388,-527.5C364.1,-527.5 352.54,-501.02 346.99,-477.8"/>
<polygon fill="black" stroke="black" points="350.37,-476.87 344.91,-467.8 343.52,-478.3 350.37,-476.87"/>
</g>
<!-- struct_140653293211552 -->
<g id="node16" class="node">
<title>struct_140653293211552</title>
<polygon fill="gray" stroke="transparent" points="411.5,-411 411.5,-474 522.5,-474 522.5,-411 411.5,-411"/>
<polygon fill="none" stroke="black" points="412,-452.5 412,-473.5 523,-473.5 523,-452.5 412,-452.5"/>
<text text-anchor="start" x="442.5" y="-460.3" font-family="Times,serif" text-decoration="underline" font-size="14.00">Cellule</text>
<polygon fill="none" stroke="black" points="412,-431.5 412,-452.5 464,-452.5 464,-431.5 412,-431.5"/>
<text text-anchor="start" x="415" y="-438.3" font-family="Times,serif" font-size="14.00">valeur</text>
<polygon fill="none" stroke="black" points="464,-431.5 464,-452.5 523,-452.5 523,-431.5 464,-431.5"/>
<text text-anchor="start" x="467" y="-438.3" font-family="Times,serif" font-size="14.00">suivant</text>
<polygon fill="none" stroke="black" points="412,-410.5 412,-431.5 464,-431.5 464,-410.5 412,-410.5"/>
<text text-anchor="start" x="429" y="-417.3" font-family="Times,serif" font-size="14.00">⏺</text>
<polygon fill="none" stroke="black" points="464,-410.5 464,-431.5 523,-431.5 523,-410.5 464,-410.5"/>
<text text-anchor="start" x="484.5" y="-417.3" font-family="Times,serif" font-size="14.00">⏺</text>
</g>
<!-- struct_140653291018128&#45;&gt;struct_140653293211552 -->
<g id="edge22" class="edge">
<title>struct_140653291018128:port_child1&#45;&gt;struct_140653293211552</title>
<path fill="none" stroke="black" d="M471,-516.5C471,-507.37 470.68,-497.61 470.23,-488.29"/>
<polygon fill="black" stroke="black" points="473.71,-487.81 469.67,-478.01 466.72,-488.19 473.71,-487.81"/>
</g>
<!-- struct_9788608 -->
<g id="node17" class="node">
<title>struct_9788608</title>
<polygon fill="gray" stroke="transparent" points="372,-314.5 372,-356.5 398,-356.5 398,-314.5 372,-314.5"/>
<polygon fill="none" stroke="black" points="372,-335.5 372,-356.5 398,-356.5 398,-335.5 372,-335.5"/>
<text text-anchor="start" x="375" y="-343.3" font-family="Times,serif" text-decoration="underline" font-size="14.00">int</text>
<polygon fill="none" stroke="black" points="372,-314.5 372,-335.5 398,-335.5 398,-314.5 372,-314.5"/>
<text text-anchor="start" x="380" y="-321.3" font-family="Times,serif" font-size="14.00">1</text>
</g>
<!-- struct_140653293211552&#45;&gt;struct_9788608 -->
<g id="edge14" class="edge">
<title>struct_140653293211552:port_child0&#45;&gt;struct_9788608</title>
<path fill="none" stroke="black" d="M411,-420.5C389.06,-420.5 383.56,-394.02 382.96,-370.8"/>
<polygon fill="black" stroke="black" points="386.46,-370.8 382.97,-360.8 379.46,-370.79 386.46,-370.8"/>
</g>
<!-- struct_140653291017360 -->
<g id="node18" class="node">
<title>struct_140653291017360</title>
<polygon fill="gray" stroke="transparent" points="438.5,-304 438.5,-367 549.5,-367 549.5,-304 438.5,-304"/>
<polygon fill="none" stroke="black" points="439,-345.5 439,-366.5 550,-366.5 550,-345.5 439,-345.5"/>
<text text-anchor="start" x="469.5" y="-353.3" font-family="Times,serif" text-decoration="underline" font-size="14.00">Cellule</text>
<polygon fill="none" stroke="black" points="439,-324.5 439,-345.5 491,-345.5 491,-324.5 439,-324.5"/>
<text text-anchor="start" x="442" y="-331.3" font-family="Times,serif" font-size="14.00">valeur</text>
<polygon fill="none" stroke="black" points="491,-324.5 491,-345.5 550,-345.5 550,-324.5 491,-324.5"/>
<text text-anchor="start" x="494" y="-331.3" font-family="Times,serif" font-size="14.00">suivant</text>
<polygon fill="none" stroke="black" points="439,-303.5 439,-324.5 491,-324.5 491,-303.5 439,-303.5"/>
<text text-anchor="start" x="456" y="-310.3" font-family="Times,serif" font-size="14.00">⏺</text>
<polygon fill="none" stroke="black" points="491,-303.5 491,-324.5 550,-324.5 550,-303.5 491,-303.5"/>
<text text-anchor="start" x="511.5" y="-310.3" font-family="Times,serif" font-size="14.00">⏺</text>
</g>
<!-- struct_140653293211552&#45;&gt;struct_140653291017360 -->
<g id="edge21" class="edge">
<title>struct_140653293211552:port_child1&#45;&gt;struct_140653291017360</title>
<path fill="none" stroke="black" d="M494,-409.5C494,-400.38 494,-390.63 494,-381.31"/>
<polygon fill="black" stroke="black" points="497.5,-381.03 494,-371.03 490.5,-381.03 497.5,-381.03"/>
</g>
<!-- struct_9788672 -->
<g id="node19" class="node">
<title>struct_9788672</title>
<polygon fill="gray" stroke="transparent" points="399,-207.5 399,-249.5 425,-249.5 425,-207.5 399,-207.5"/>
<polygon fill="none" stroke="black" points="399,-228.5 399,-249.5 425,-249.5 425,-228.5 399,-228.5"/>
<text text-anchor="start" x="402" y="-236.3" font-family="Times,serif" text-decoration="underline" font-size="14.00">int</text>
<polygon fill="none" stroke="black" points="399,-207.5 399,-228.5 425,-228.5 425,-207.5 399,-207.5"/>
<text text-anchor="start" x="407" y="-214.3" font-family="Times,serif" font-size="14.00">3</text>
</g>
<!-- struct_140653291017360&#45;&gt;struct_9788672 -->
<g id="edge15" class="edge">
<title>struct_140653291017360:port_child0&#45;&gt;struct_9788672</title>
<path fill="none" stroke="black" d="M438,-313.5C427.03,-313.5 420.18,-287.02 416.29,-263.8"/>
<polygon fill="black" stroke="black" points="419.73,-263.15 414.75,-253.8 412.81,-264.21 419.73,-263.15"/>
</g>
<!-- struct_140653291017552 -->
<g id="node20" class="node">
<title>struct_140653291017552</title>
<polygon fill="gray" stroke="transparent" points="465.5,-197 465.5,-260 576.5,-260 576.5,-197 465.5,-197"/>
<polygon fill="none" stroke="black" points="466,-238.5 466,-259.5 577,-259.5 577,-238.5 466,-238.5"/>
<text text-anchor="start" x="496.5" y="-246.3" font-family="Times,serif" text-decoration="underline" font-size="14.00">Cellule</text>
<polygon fill="none" stroke="black" points="466,-217.5 466,-238.5 518,-238.5 518,-217.5 466,-217.5"/>
<text text-anchor="start" x="469" y="-224.3" font-family="Times,serif" font-size="14.00">valeur</text>
<polygon fill="none" stroke="black" points="518,-217.5 518,-238.5 577,-238.5 577,-217.5 518,-217.5"/>
<text text-anchor="start" x="521" y="-224.3" font-family="Times,serif" font-size="14.00">suivant</text>
<polygon fill="none" stroke="black" points="466,-196.5 466,-217.5 518,-217.5 518,-196.5 466,-196.5"/>
<text text-anchor="start" x="483" y="-203.3" font-family="Times,serif" font-size="14.00">⏺</text>
<polygon fill="none" stroke="black" points="518,-196.5 518,-217.5 577,-217.5 577,-196.5 518,-196.5"/>
<text text-anchor="start" x="538.5" y="-203.3" font-family="Times,serif" font-size="14.00">⏺</text>
</g>
<!-- struct_140653291017360&#45;&gt;struct_140653291017552 -->
<g id="edge20" class="edge">
<title>struct_140653291017360:port_child1&#45;&gt;struct_140653291017552</title>
<path fill="none" stroke="black" d="M521,-302.5C521,-293.38 521,-283.63 521,-274.31"/>
<polygon fill="black" stroke="black" points="524.5,-274.03 521,-264.03 517.5,-274.03 524.5,-274.03"/>
</g>
<!-- struct_9788736 -->
<g id="node21" class="node">
<title>struct_9788736</title>
<polygon fill="gray" stroke="transparent" points="464,-100.5 464,-142.5 490,-142.5 490,-100.5 464,-100.5"/>
<polygon fill="none" stroke="black" points="464,-121.5 464,-142.5 490,-142.5 490,-121.5 464,-121.5"/>
<text text-anchor="start" x="467" y="-129.3" font-family="Times,serif" text-decoration="underline" font-size="14.00">int</text>
<polygon fill="none" stroke="black" points="464,-100.5 464,-121.5 490,-121.5 490,-100.5 464,-100.5"/>
<text text-anchor="start" x="472" y="-107.3" font-family="Times,serif" font-size="14.00">5</text>
</g>
<!-- struct_140653291017552&#45;&gt;struct_9788736 -->
<g id="edge16" class="edge">
<title>struct_140653291017552:port_child0&#45;&gt;struct_9788736</title>
<path fill="none" stroke="black" d="M492,-195.5C492,-182.56 489.71,-168.59 486.92,-156.37"/>
<polygon fill="black" stroke="black" points="490.3,-155.45 484.5,-146.58 483.5,-157.13 490.3,-155.45"/>
</g>
<!-- struct_140653291017888 -->
<g id="node22" class="node">
<title>struct_140653291017888</title>
<polygon fill="gray" stroke="transparent" points="530.5,-90 530.5,-153 641.5,-153 641.5,-90 530.5,-90"/>
<polygon fill="none" stroke="black" points="531,-131.5 531,-152.5 642,-152.5 642,-131.5 531,-131.5"/>
<text text-anchor="start" x="561.5" y="-139.3" font-family="Times,serif" text-decoration="underline" font-size="14.00">Cellule</text>
<polygon fill="none" stroke="black" points="531,-110.5 531,-131.5 583,-131.5 583,-110.5 531,-110.5"/>
<text text-anchor="start" x="534" y="-117.3" font-family="Times,serif" font-size="14.00">valeur</text>
<polygon fill="none" stroke="black" points="583,-110.5 583,-131.5 642,-131.5 642,-110.5 583,-110.5"/>
<text text-anchor="start" x="586" y="-117.3" font-family="Times,serif" font-size="14.00">suivant</text>
<polygon fill="none" stroke="black" points="531,-89.5 531,-110.5 583,-110.5 583,-89.5 531,-89.5"/>
<text text-anchor="start" x="548" y="-96.3" font-family="Times,serif" font-size="14.00">⏺</text>
<polygon fill="none" stroke="black" points="583,-89.5 583,-110.5 642,-110.5 642,-89.5 583,-89.5"/>
<text text-anchor="start" x="603.5" y="-96.3" font-family="Times,serif" font-size="14.00">⏺</text>
</g>
<!-- struct_140653291017552&#45;&gt;struct_140653291017888 -->
<g id="edge19" class="edge">
<title>struct_140653291017552:port_child1&#45;&gt;struct_140653291017888</title>
<path fill="none" stroke="black" d="M548,-195.5C548,-185.43 550.88,-175.37 555.06,-166.07"/>
<polygon fill="black" stroke="black" points="558.22,-167.57 559.61,-157.07 551.98,-164.41 558.22,-167.57"/>
</g>
<!-- struct_140653291017888&#45;&gt;struct_140653291018128 -->
<g id="edge18" class="edge">
<title>struct_140653291017888:port_child1&#45;&gt;struct_140653291018128</title>
<path fill="none" stroke="black" d="M643,-99.5C817.34,-99.5 641.65,-336.36 540,-478 532.22,-488.84 522.26,-498.7 511.71,-507.38"/>
<polygon fill="black" stroke="black" points="509.26,-504.85 503.56,-513.78 513.58,-510.36 509.26,-504.85"/>
</g>
<!-- struct_9788800 -->
<g id="node23" class="node">
<title>struct_9788800</title>
<polygon fill="gray" stroke="transparent" points="544,-4 544,-46 570,-46 570,-4 544,-4"/>
<polygon fill="none" stroke="black" points="544,-25 544,-46 570,-46 570,-25 544,-25"/>
<text text-anchor="start" x="547" y="-32.8" font-family="Times,serif" text-decoration="underline" font-size="14.00">int</text>
<polygon fill="none" stroke="black" points="544,-4 544,-25 570,-25 570,-4 544,-4"/>
<text text-anchor="start" x="552" y="-10.8" font-family="Times,serif" font-size="14.00">7</text>
</g>
<!-- struct_140653291017888&#45;&gt;struct_9788800 -->
<g id="edge17" class="edge">
<title>struct_140653291017888:port_child0&#45;&gt;struct_9788800</title>
<path fill="none" stroke="black" d="M557,-88.5C557,-79.28 557,-69.29 557,-60.06"/>
<polygon fill="black" stroke="black" points="560.5,-60.04 557,-50.04 553.5,-60.04 560.5,-60.04"/>
</g>
</g>
</svg>
