<?xml version="1.0" encoding="utf-8"?><!-- Uploaded to: SVG Repo, www.svgrepo.com, Generator: SVG Repo Mixer Tools -->
<svg width="800px" height="800px" viewBox="0 0 24 24" fill="none" xmlns="http://www.w3.org/2000/svg">
<path d="M5.65681 7.75728C5.26629 7.36675 4.63312 7.36675 4.2426 7.75728L1.41426 10.5857C0.633215 11.3667 0.633121 12.6331 1.41417 13.4141L4.24269 16.2425C4.63321 16.633 5.26638 16.633 5.6569 16.2425C6.04743 15.852 6.04743 15.2188 5.6569 14.8283L3.82849 12.9999L17.9998 12.9999L18.0015 12.9999H20.1714L18.3429 14.8283C17.9524 15.2188 17.9524 15.852 18.3429 16.2425C18.7335 16.633 19.3666 16.633 19.7572 16.2425L22.5856 13.4141C23.3666 12.633 23.3668 11.3667 22.5857 10.5857L19.7573 7.75725C19.3668 7.36672 18.7336 7.36672 18.3431 7.75725C17.9526 8.14777 17.9526 8.78094 18.3431 9.17146L20.1715 10.9999L3.82842 10.9999L5.65681 9.17149C6.04734 8.78097 6.04734 8.1478 5.65681 7.75728Z" fill="#0F0F0F"/>
</svg>